<svg width="114" height="105" viewBox="0 0 114 105" fill="none" xmlns="http://www.w3.org/2000/svg">
<path d="M15.3582 38.8813L15.4558 39.8717H109.725C111.813 39.8717 113.5 41.5419 113.5 43.5828V100.789C113.5 102.83 111.813 104.5 109.725 104.5H4.275C2.18707 104.5 0.5 102.83 0.5 100.789V43.5828C0.5 41.747 1.85907 40.295 3.66977 40.002L4.57613 39.8553L3.96119 39.1735C3.50734 38.6703 3.15212 38.0918 3.0109 37.4387L0.573134 25.03C0.573085 25.0298 0.573036 25.0295 0.572987 25.0293C0.188476 23.0366 1.51126 21.0813 3.57259 20.6941L3.5726 20.6942L3.57761 20.6932L104.994 0.568129C104.995 0.567976 104.996 0.567823 104.997 0.567671C107.066 0.180238 109.041 1.49299 109.426 3.50658L109.426 3.50921L111.865 15.9213C111.865 15.9217 111.865 15.922 111.865 15.9224C112.25 17.9452 110.924 19.8988 108.865 20.2856L108.86 20.2866L15.3582 38.8813ZM70.1372 92.9375L71.3943 93.8356L70.9018 92.3712L65.6493 76.7544L79.2666 67.125L80.551 66.2168H78.9779H62.1568L56.9814 50.5901L56.5055 49.1532L56.0318 50.5908L50.8835 66.2168H34.063H32.4899L33.7743 67.125L47.3921 76.7548L42.1662 92.372L41.6773 93.8332L42.931 92.9375L56.5341 83.2188L70.1372 92.9375Z" fill="#0BCEB2" stroke="black"/>
</svg>
